<?xml version="1.0" encoding="utf-8"?>
<!-- Generator: Adobe Illustrator 24.1.0, SVG Export Plug-In . SVG Version: 6.00 Build 0)  -->
<svg version="1.1" id="Layer_1" xmlns="http://www.w3.org/2000/svg" xmlns:xlink="http://www.w3.org/1999/xlink" x="0px" y="0px"
	 viewBox="0 0 165.63 43.79" style="enable-background:new 0 0 165.63 43.79;" xml:space="preserve">
<style type="text/css">
	.st0{fill:#56175D;}
</style>
<g>
	<path class="st0" d="M29.93,20.54l-4.11,11.74h-1.2L21.4,24l-3.22,8.29h-1.2l-4.11-11.74h2.3l2.61,8.24l3.08-8.24h1.08l3.08,8.24
		l2.61-8.24H29.93z"/>
	<path class="st0" d="M38.56,20.31c1.21,0,2.21,0.25,3.01,0.75c0.8,0.5,1.4,1.18,1.8,2.04s0.6,1.83,0.6,2.91v1.15h-9.02
		c0.09,0.66,0.32,1.26,0.68,1.81c0.36,0.55,0.83,0.98,1.41,1.3c0.58,0.32,1.24,0.48,2,0.48c0.85,0,1.64-0.22,2.37-0.65
		s1.35-0.9,1.86-1.42l-0.02,2.09c-0.22,0.27-0.54,0.54-0.97,0.83c-0.43,0.29-0.92,0.53-1.48,0.73c-0.56,0.2-1.14,0.29-1.75,0.29
		c-1.19,0-2.25-0.28-3.17-0.85s-1.65-1.31-2.17-2.24c-0.52-0.93-0.79-1.95-0.79-3.06s0.24-2.14,0.73-3.08
		c0.49-0.94,1.15-1.69,2.01-2.25C36.49,20.59,37.46,20.31,38.56,20.31z M38.56,22.19c-0.97,0-1.77,0.32-2.4,0.97
		c-0.63,0.65-1.02,1.44-1.17,2.36h7.07c-0.08-0.77-0.29-1.39-0.65-1.88s-0.78-0.85-1.28-1.09C39.63,22.31,39.11,22.19,38.56,22.19z"
		/>
	<path class="st0" d="M53.41,20.31c0.67,0,1.36,0.16,2.05,0.48c0.7,0.32,1.3,0.76,1.8,1.33v-1.57h1.93v11.74h-1.93v-2
		c-0.41,0.63-0.96,1.17-1.66,1.64c-0.7,0.47-1.49,0.7-2.38,0.7c-1,0-1.92-0.25-2.75-0.76c-0.83-0.51-1.49-1.22-1.98-2.13
		s-0.74-1.96-0.74-3.15c0-1.3,0.25-2.42,0.74-3.36c0.49-0.94,1.17-1.66,2.03-2.17C51.38,20.56,52.34,20.31,53.41,20.31z
		 M53.76,22.19c-0.85,0-1.57,0.21-2.16,0.63c-0.59,0.42-1.05,0.97-1.37,1.63c-0.32,0.67-0.48,1.38-0.48,2.15
		c0,0.75,0.16,1.44,0.47,2.08c0.31,0.63,0.76,1.14,1.33,1.51s1.23,0.56,1.98,0.56c0.72,0,1.36-0.19,1.93-0.56s1.01-0.9,1.34-1.56
		s0.49-1.41,0.47-2.24l-0.02-2.25c-0.49-0.61-1.01-1.09-1.56-1.43C55.12,22.36,54.48,22.19,53.76,22.19z"/>
	<path class="st0" d="M67.86,17.16v3.38h3.43v1.81h-3.43v6.88c0,0.49,0.13,0.87,0.38,1.15c0.25,0.28,0.63,0.42,1.15,0.42
		c0.47,0,0.86-0.06,1.17-0.18s0.59-0.25,0.82-0.39v1.57c-0.31,0.25-0.65,0.45-1,0.6c-0.35,0.15-0.83,0.22-1.42,0.22
		c-1,0-1.76-0.3-2.27-0.9c-0.51-0.6-0.76-1.41-0.76-2.41v-6.97h-2.25v-0.56c0.77-0.34,1.41-0.91,1.93-1.7
		c0.52-0.79,0.97-1.77,1.36-2.92H67.86z"/>
	<path class="st0" d="M81.99,20.31c0.8,0,1.53,0.18,2.18,0.53c0.66,0.35,1.18,0.88,1.57,1.6c0.39,0.71,0.59,1.61,0.59,2.69v7.16
		h-1.93l-0.02-6.97c0-1.02-0.22-1.79-0.67-2.32c-0.45-0.53-1.13-0.8-2.05-0.8c-0.63,0-1.25,0.23-1.87,0.69s-1.16,1-1.63,1.61v7.8
		h-1.93V15.38h1.93v7.02c0.25-0.31,0.57-0.63,0.96-0.95c0.39-0.32,0.83-0.59,1.33-0.81C80.94,20.42,81.46,20.31,81.99,20.31z"/>
	<path class="st0" d="M96.25,20.31c1.21,0,2.21,0.25,3.01,0.75c0.8,0.5,1.4,1.18,1.8,2.04c0.4,0.86,0.6,1.83,0.6,2.91v1.15h-9.02
		c0.09,0.66,0.32,1.26,0.68,1.81s0.83,0.98,1.41,1.3c0.58,0.32,1.24,0.48,2,0.48c0.85,0,1.64-0.22,2.37-0.65
		c0.74-0.43,1.35-0.9,1.86-1.42l-0.02,2.09c-0.22,0.27-0.54,0.54-0.97,0.83c-0.43,0.29-0.92,0.53-1.48,0.73
		c-0.56,0.2-1.14,0.29-1.75,0.29c-1.19,0-2.25-0.28-3.17-0.85s-1.65-1.31-2.17-2.24c-0.52-0.93-0.79-1.95-0.79-3.06
		s0.24-2.14,0.73-3.08c0.49-0.94,1.15-1.69,2.01-2.25C94.18,20.59,95.16,20.31,96.25,20.31z M96.25,22.19
		c-0.97,0-1.77,0.32-2.4,0.97c-0.63,0.65-1.02,1.44-1.17,2.36h7.07c-0.08-0.77-0.29-1.39-0.65-1.88s-0.78-0.85-1.28-1.09
		C97.33,22.31,96.8,22.19,96.25,22.19z"/>
	<path class="st0" d="M108.19,20.54v2.35c0.45-0.78,1-1.41,1.64-1.88c0.64-0.47,1.3-0.7,1.97-0.7c0.45,0,0.86,0.08,1.22,0.23v2.23
		c-0.5-0.3-1-0.45-1.5-0.45c-0.8,0-1.44,0.28-1.94,0.85s-0.96,1.24-1.4,2.02v7.09h-1.93V20.54H108.19z"/>
	<path class="st0" d="M121.78,20.31c0.67,0,1.36,0.16,2.05,0.48c0.7,0.32,1.3,0.76,1.8,1.33v-1.57h1.93v11.74h-1.93v-2
		c-0.41,0.63-0.96,1.17-1.66,1.64s-1.49,0.7-2.38,0.7c-1,0-1.92-0.25-2.75-0.76c-0.83-0.51-1.49-1.22-1.98-2.13
		c-0.49-0.91-0.74-1.96-0.74-3.15c0-1.3,0.25-2.42,0.74-3.36c0.49-0.94,1.17-1.66,2.03-2.17C119.75,20.56,120.71,20.31,121.78,20.31
		z M122.13,22.19c-0.85,0-1.57,0.21-2.16,0.63c-0.59,0.42-1.05,0.97-1.37,1.63c-0.32,0.67-0.48,1.38-0.48,2.15
		c0,0.75,0.16,1.44,0.47,2.08c0.31,0.63,0.76,1.14,1.33,1.51s1.23,0.56,1.98,0.56c0.72,0,1.36-0.19,1.93-0.56s1.01-0.9,1.34-1.56
		s0.49-1.41,0.47-2.24l-0.02-2.25c-0.49-0.61-1.01-1.09-1.56-1.43S122.85,22.19,122.13,22.19z"/>
	<path class="st0" d="M138.96,20.31c1.02,0,1.94,0.25,2.76,0.74c0.82,0.49,1.48,1.18,1.97,2.07s0.74,1.92,0.74,3.11
		c0,1.28-0.25,2.41-0.74,3.37s-1.17,1.71-2.02,2.24c-0.85,0.53-1.82,0.8-2.9,0.8c-0.67,0-1.36-0.18-2.05-0.54
		c-0.7-0.36-1.3-0.82-1.8-1.39v7.21h-1.93V20.54h1.93v2c0.41-0.63,0.96-1.15,1.66-1.59C137.27,20.52,138.06,20.31,138.96,20.31z
		 M138.65,22.19c-0.7,0-1.34,0.18-1.91,0.54c-0.57,0.36-1.02,0.86-1.34,1.49c-0.32,0.63-0.48,1.37-0.48,2.22l0.02,2.25
		c0.5,0.61,1.03,1.11,1.57,1.49c0.55,0.38,1.18,0.58,1.9,0.58c0.85,0,1.57-0.22,2.16-0.66c0.59-0.44,1.05-1.01,1.37-1.7
		c0.32-0.7,0.48-1.42,0.48-2.17c0-0.77-0.16-1.45-0.47-2.05c-0.31-0.6-0.75-1.08-1.32-1.44C140.08,22.37,139.42,22.19,138.65,22.19z
		"/>
	<path class="st0" d="M155.01,20.31c1.02,0,1.94,0.25,2.76,0.74c0.82,0.49,1.48,1.18,1.97,2.07c0.49,0.88,0.74,1.92,0.74,3.11
		c0,1.28-0.25,2.41-0.74,3.37c-0.49,0.96-1.17,1.71-2.02,2.24c-0.85,0.53-1.82,0.8-2.9,0.8c-0.67,0-1.36-0.18-2.05-0.54
		c-0.7-0.36-1.3-0.82-1.8-1.39v7.21h-1.93V20.54h1.93v2c0.41-0.63,0.96-1.15,1.66-1.59C153.32,20.52,154.11,20.31,155.01,20.31z
		 M154.7,22.19c-0.7,0-1.34,0.18-1.91,0.54c-0.57,0.36-1.02,0.86-1.34,1.49c-0.32,0.63-0.48,1.37-0.48,2.22l0.02,2.25
		c0.5,0.61,1.03,1.11,1.57,1.49c0.55,0.38,1.18,0.58,1.9,0.58c0.85,0,1.57-0.22,2.16-0.66c0.59-0.44,1.05-1.01,1.37-1.7
		c0.32-0.7,0.48-1.42,0.48-2.17c0-0.77-0.16-1.45-0.47-2.05c-0.31-0.6-0.75-1.08-1.32-1.44C156.13,22.37,155.47,22.19,154.7,22.19z"
		/>
</g>
<g>
	<path class="st0" d="M127.65,36.01L14.12,36.01c-6.82,0-12.36-5.55-12.36-12.36S7.3,11.28,14.12,11.28c2.38,0,4.66,0.67,6.64,1.93
		c3.15-4.92,8.5-7.86,14.35-7.86c7.42,0,13.94,4.74,16.21,11.8l-1.33,0.43C47.9,11.1,41.92,6.75,35.11,6.75
		c-5.43,0-10.39,2.75-13.27,7.37l-0.69,1.09l-0.6-0.44c-1.88-1.36-4.1-2.08-6.43-2.08c-6.04,0-10.96,4.92-10.96,10.96
		S8.07,34.6,14.12,34.6l113.53,0.01V36.01z"/>
</g>
</svg>
